<mxfile host="app.diagrams.net" agent="Mozilla/5.0 (Windows NT 10.0; Win64; x64) AppleWebKit/537.36 (KHTML, like Gecko) Chrome/131.0.0.0 Safari/537.36" version="26.0.4">
  <diagram name="Page-1" id="2JGUy0inISzj_SHumJa5">
    <mxGraphModel dx="597" dy="737" grid="1" gridSize="10" guides="1" tooltips="1" connect="1" arrows="1" fold="1" page="1" pageScale="1" pageWidth="827" pageHeight="1169" math="0" shadow="0">
      <root>
        <mxCell id="0" />
        <mxCell id="1" parent="0" />
        <mxCell id="4laSsWSIw2ptgMBSHfPe-1" value="" style="rounded=0;whiteSpace=wrap;html=1;" vertex="1" parent="1">
          <mxGeometry x="350" y="240" width="340" height="240" as="geometry" />
        </mxCell>
        <mxCell id="4laSsWSIw2ptgMBSHfPe-2" value="" style="rounded=0;whiteSpace=wrap;html=1;" vertex="1" parent="1">
          <mxGeometry x="360" y="250" width="320" height="60" as="geometry" />
        </mxCell>
        <mxCell id="4laSsWSIw2ptgMBSHfPe-3" value="one" style="rounded=0;whiteSpace=wrap;html=1;" vertex="1" parent="1">
          <mxGeometry x="370" y="260" width="70" height="40" as="geometry" />
        </mxCell>
        <mxCell id="4laSsWSIw2ptgMBSHfPe-5" value="one" style="rounded=0;whiteSpace=wrap;html=1;" vertex="1" parent="1">
          <mxGeometry x="450" y="260" width="70" height="40" as="geometry" />
        </mxCell>
        <mxCell id="4laSsWSIw2ptgMBSHfPe-6" value="one" style="rounded=0;whiteSpace=wrap;html=1;" vertex="1" parent="1">
          <mxGeometry x="530" y="260" width="70" height="40" as="geometry" />
        </mxCell>
        <mxCell id="4laSsWSIw2ptgMBSHfPe-7" value="one" style="rounded=0;whiteSpace=wrap;html=1;" vertex="1" parent="1">
          <mxGeometry x="600" y="260" width="70" height="40" as="geometry" />
        </mxCell>
        <mxCell id="4laSsWSIw2ptgMBSHfPe-8" value="" style="rounded=0;whiteSpace=wrap;html=1;" vertex="1" parent="1">
          <mxGeometry x="360" y="320" width="320" height="60" as="geometry" />
        </mxCell>
        <mxCell id="4laSsWSIw2ptgMBSHfPe-9" value="one" style="rounded=0;whiteSpace=wrap;html=1;" vertex="1" parent="1">
          <mxGeometry x="370" y="330" width="70" height="40" as="geometry" />
        </mxCell>
        <mxCell id="4laSsWSIw2ptgMBSHfPe-10" value="one" style="rounded=0;whiteSpace=wrap;html=1;" vertex="1" parent="1">
          <mxGeometry x="450" y="330" width="70" height="40" as="geometry" />
        </mxCell>
        <mxCell id="4laSsWSIw2ptgMBSHfPe-11" value="one" style="rounded=0;whiteSpace=wrap;html=1;" vertex="1" parent="1">
          <mxGeometry x="530" y="330" width="70" height="40" as="geometry" />
        </mxCell>
        <mxCell id="4laSsWSIw2ptgMBSHfPe-12" value="one" style="rounded=0;whiteSpace=wrap;html=1;" vertex="1" parent="1">
          <mxGeometry x="610" y="330" width="70" height="40" as="geometry" />
        </mxCell>
      </root>
    </mxGraphModel>
  </diagram>
</mxfile>
